<svg width="126" height="126" viewBox="0 0 126 126" fill="none" xmlns="http://www.w3.org/2000/svg">
<g id="Group 185">
<circle id="Ellipse 34" cx="63" cy="63" r="63" fill="#B0B8B2"/>
<path id="Star 1" d="M60.1468 26.2533C61.0449 23.4894 64.9551 23.4894 65.8532 26.2533L72.3236 46.1672C73.2607 49.0513 75.9484 51.0041 78.981 51.0041H99.9197C102.826 51.0041 104.034 54.7229 101.683 56.4311L84.7433 68.7386C82.2899 70.5211 81.2633 73.6807 82.2004 76.5648L88.6708 96.4787C89.5688 99.2426 86.4054 101.541 84.0543 99.8328L67.1145 87.5254C64.6611 85.7429 61.3389 85.7429 58.8855 87.5254L41.9457 99.8328C39.5946 101.541 36.4311 99.2427 37.3292 96.4787L43.7996 76.5648C44.7367 73.6807 43.7101 70.5211 41.2567 68.7386L24.317 56.4311C21.9658 54.7229 23.1741 51.0041 26.0803 51.0041H47.019C50.0516 51.0041 52.7393 49.0513 53.6764 46.1672L60.1468 26.2533Z" stroke="#EDECE6" stroke-width="4"/>
</g>
</svg>
