<svg width="126" height="126" viewBox="0 0 126 126" fill="none" xmlns="http://www.w3.org/2000/svg">
<g id="Group 185">
<circle id="Ellipse 34" cx="63" cy="63" r="63" fill="#B0B8B2"/>
<g id="Group 184">
<path id="Rectangle 66 (Stroke)" fill-rule="evenodd" clip-rule="evenodd" d="M33.3038 46.2969V92.7031H92.6962V46.2969H33.3038ZM32.443 42C30.5415 42 29 43.539 29 45.4375V93.5625C29 95.461 30.5415 97 32.443 97H93.557C95.4585 97 97 95.461 97 93.5625V45.4375C97 43.539 95.4585 42 93.557 42H32.443Z" fill="#EDECE6"/>
<path id="Rectangle 69 (Stroke)" fill-rule="evenodd" clip-rule="evenodd" d="M27.3478 33.25V41.75H98.6522V33.25H27.3478ZM26.4783 29C24.5573 29 23 30.5222 23 32.4V42.6C23 44.4778 24.5573 46 26.4783 46H99.5217C101.443 46 103 44.4778 103 42.6V32.4C103 30.5222 101.443 29 99.5217 29H26.4783Z" fill="#EDECE6"/>
<path id="Rectangle 67 (Stroke)" fill-rule="evenodd" clip-rule="evenodd" d="M41.2857 67.359V92.641H56.7143V67.359H41.2857ZM38.7143 63C37.7675 63 37 63.7806 37 64.7436V95.2564C37 96.2194 37.7675 97 38.7143 97H59.2857C60.2325 97 61 96.2194 61 95.2564V64.7436C61 63.7806 60.2325 63 59.2857 63H38.7143Z" fill="#EDECE6"/>
<path id="Rectangle 68 (Stroke)" fill-rule="evenodd" clip-rule="evenodd" d="M69.2593 67.5V76.5H83.7407V67.5H69.2593ZM66.7037 63C65.7628 63 65 63.8059 65 64.8V79.2C65 80.1941 65.7628 81 66.7037 81H86.2963C87.2372 81 88 80.1941 88 79.2V64.8C88 63.8059 87.2372 63 86.2963 63H66.7037Z" fill="#EDECE6"/>
<path id="Line 11 (Stroke)" fill-rule="evenodd" clip-rule="evenodd" d="M46 76C47.1046 76 48 76.9327 48 78.0833L48 83.9167C48 85.0673 47.1046 86 46 86C44.8954 86 44 85.0673 44 83.9167L44 78.0833C44 76.9327 44.8954 76 46 76Z" fill="#EDECE6"/>
</g>
</g>
</svg>
